<svg version="1.1" class="clearos-svg clearfoundation app-vendor-burgess app-free app-category-system app-sub-category-settings" viewBox="0 0 400 400" preserveAspectRatio="xMinYMin" xmlns="http://www.w3.org/2000/svg" xmlns:xlink= "http://www.w3.org/1999/xlink">
<path fill="#AA0707" d="M91.666,184.647"/>
<path fill="#AA0707" d="M123.245,247.805"/>
<path fill="#AA0707" d="M91.666,184.647"/>
<path fill="#AA0707" d="M123.245,247.805"/>
<g>
	<path fill="#686868" d="M372.953,57.467H27.017c-13.254,0-24.012,10.742-24.012,24.012v237.058
		c0,13.285,10.757,23.996,24.012,23.996h345.951c13.271,0,24.027-10.711,24.027-23.996V81.479
		C396.979,68.209,386.238,57.467,372.953,57.467z M377.773,306.945c0,11.998-9.723,21.703-21.688,21.703H43.884
		c-11.967,0-21.688-9.705-21.688-21.703V93.054c0-11.967,9.721-21.688,21.688-21.688h312.202c11.967,0,21.688,9.721,21.688,21.688
		L377.773,306.945L377.773,306.945z"/>
	<path fill="#686868" d="M345.533,80.05H54.453c-11.166,0-20.227,9.046-20.227,20.211v199.445c0,11.166,9.046,20.228,20.227,20.228
		h291.096c11.166,0,20.229-9.062,20.229-20.228V100.262C365.744,89.097,356.73,80.05,345.533,80.05z M86.302,255.342
		c-2.042,1.664-5.277,2.953-9.721,3.928v-1.258c2.937-0.629,5.229-1.633,6.832-2.969c1.633-1.352,2.418-2.766,2.418-4.271
		c0-0.33-0.125-0.646-0.377-0.896c-0.204-0.188-0.408-0.252-0.597-0.252c-0.314,0-1.005,0.188-2.073,0.533
		c-0.502,0.174-1.036,0.282-1.633,0.282c-1.413,0-2.497-0.282-3.36-0.848c-0.817-0.533-1.225-1.287-1.225-2.262
		c0-0.912,0.534-1.696,1.618-2.355c1.068-0.629,2.387-0.975,3.926-0.975c1.885,0,3.565,0.533,5.041,1.634
		c1.461,1.067,2.199,2.513,2.199,4.304C89.364,251.854,88.343,253.662,86.302,255.342z M86.302,207.271
		c-2.042,1.681-5.277,2.968-9.721,3.939v-1.238c2.937-0.646,5.229-1.619,6.832-2.971c1.633-1.352,2.418-2.764,2.418-4.256
		c0-0.361-0.125-0.658-0.377-0.91c-0.204-0.172-0.408-0.234-0.597-0.234c-0.314,0-1.005,0.156-2.073,0.549
		c-0.502,0.175-1.036,0.269-1.633,0.269c-1.413,0-2.497-0.283-3.36-0.815c-0.817-0.533-1.225-1.288-1.225-2.262
		c0-0.942,0.534-1.696,1.618-2.355c1.068-0.66,2.387-0.989,3.926-0.989c1.885,0,3.565,0.533,5.041,1.617
		c1.461,1.067,2.199,2.497,2.199,4.287C89.364,203.801,88.343,205.621,86.302,207.271z M86.302,159.23
		c-2.042,1.665-5.277,2.984-9.721,3.927v-1.241c2.937-0.644,5.229-1.617,6.832-2.968c1.633-1.335,2.418-2.764,2.418-4.271
		c0-0.346-0.125-0.66-0.377-0.896c-0.204-0.157-0.408-0.267-0.597-0.267c-0.314,0-1.005,0.204-2.073,0.565
		c-0.502,0.188-1.036,0.267-1.633,0.267c-1.413,0-2.497-0.267-3.36-0.832c-0.817-0.534-1.225-1.288-1.225-2.23
		c0-0.942,0.534-1.712,1.618-2.371c1.068-0.659,2.387-0.989,3.926-0.989c1.885,0,3.565,0.519,5.041,1.602
		c1.461,1.1,2.199,2.513,2.199,4.303C89.364,155.775,88.343,157.566,86.302,159.23z M113.455,249.531
		c-0.927,0.627-2.058,0.941-3.361,0.941c-1.319,0-2.45-0.314-3.376-0.941c-0.942-0.598-1.382-1.352-1.382-2.199
		c0-0.879,0.439-1.648,1.382-2.229c0.927-0.598,2.057-0.928,3.376-0.928c1.335,0,2.465,0.33,3.376,0.928
		c0.942,0.611,1.382,1.351,1.382,2.229C114.852,248.182,114.365,248.918,113.455,249.531z M113.455,201.477
		c-0.927,0.611-2.058,0.91-3.361,0.91c-1.319,0-2.45-0.299-3.376-0.91c-0.942-0.598-1.382-1.334-1.382-2.214
		c0-0.895,0.439-1.617,1.382-2.214c0.927-0.628,2.057-0.927,3.376-0.927c1.335,0,2.465,0.299,3.376,0.927
		c0.942,0.597,1.382,1.351,1.382,2.198C114.852,200.125,114.365,200.879,113.455,201.477z M113.455,153.42
		c-0.927,0.629-2.058,0.927-3.361,0.927c-1.319,0-2.45-0.298-3.376-0.927c-0.942-0.597-1.382-1.319-1.382-2.198
		c0-0.88,0.439-1.617,1.382-2.215c0.927-0.597,2.057-0.895,3.376-0.895c1.335,0,2.465,0.298,3.376,0.911
		c0.942,0.612,1.382,1.334,1.382,2.214C114.852,152.069,114.365,152.824,113.455,153.42z M127.054,249.531
		c-0.926,0.627-2.057,0.941-3.36,0.941c-1.319,0-2.435-0.314-3.376-0.941c-0.942-0.598-1.398-1.352-1.398-2.199
		c0-0.879,0.456-1.648,1.398-2.229c0.942-0.598,2.057-0.928,3.376-0.928c1.334,0,2.465,0.33,3.376,0.928
		c0.942,0.611,1.382,1.351,1.382,2.229C128.452,248.182,127.981,248.918,127.054,249.531z M127.054,201.477
		c-0.926,0.611-2.057,0.91-3.36,0.91c-1.319,0-2.435-0.299-3.376-0.91c-0.942-0.598-1.398-1.334-1.398-2.214
		c0-0.895,0.456-1.617,1.398-2.214c0.942-0.628,2.057-0.927,3.376-0.927c1.334,0,2.465,0.299,3.376,0.927
		c0.942,0.597,1.382,1.351,1.382,2.198C128.452,200.125,127.981,200.879,127.054,201.477z M127.054,153.42
		c-0.926,0.629-2.057,0.927-3.36,0.927c-1.319,0-2.435-0.298-3.376-0.927c-0.942-0.597-1.398-1.319-1.398-2.198
		c0-0.88,0.456-1.617,1.398-2.215c0.942-0.597,2.057-0.895,3.376-0.895c1.334,0,2.465,0.298,3.376,0.911
		c0.942,0.612,1.382,1.334,1.382,2.214C128.452,152.069,127.981,152.824,127.054,153.42z M140.67,249.531
		c-0.926,0.627-2.042,0.941-3.361,0.941c-1.288,0-2.418-0.314-3.36-0.941c-0.927-0.598-1.382-1.352-1.382-2.199
		c0-0.879,0.44-1.648,1.382-2.229c0.942-0.598,2.042-0.928,3.36-0.928c1.351,0,2.466,0.33,3.393,0.928
		c0.926,0.611,1.382,1.351,1.382,2.229C142.084,248.182,141.612,248.918,140.67,249.531z M140.67,201.477
		c-0.926,0.611-2.042,0.91-3.361,0.91c-1.288,0-2.418-0.299-3.36-0.91c-0.927-0.598-1.382-1.334-1.382-2.214
		c0-0.895,0.44-1.617,1.382-2.214c0.942-0.628,2.042-0.927,3.36-0.927c1.351,0,2.466,0.299,3.393,0.927
		c0.926,0.597,1.382,1.351,1.382,2.198C142.084,200.125,141.612,200.879,140.67,201.477z M140.67,153.42
		c-0.926,0.629-2.042,0.927-3.361,0.927c-1.288,0-2.418-0.298-3.36-0.927c-0.927-0.597-1.382-1.319-1.382-2.198
		c0-0.88,0.44-1.617,1.382-2.215c0.942-0.612,2.042-0.895,3.36-0.895c1.351,0,2.466,0.298,3.393,0.911
		c0.926,0.612,1.382,1.334,1.382,2.214C142.084,152.069,141.612,152.824,140.67,153.42z M167.996,255.342
		c-2.042,1.664-5.277,2.953-9.706,3.928v-1.258c2.953-0.629,5.214-1.633,6.847-2.969c1.633-1.352,2.418-2.766,2.418-4.271
		c0-0.33-0.125-0.646-0.377-0.896c-0.22-0.188-0.408-0.252-0.612-0.252c-0.33,0-1.021,0.188-2.057,0.533
		c-0.502,0.174-1.037,0.282-1.633,0.282c-1.414,0-2.513-0.282-3.33-0.848c-0.848-0.533-1.256-1.287-1.256-2.262
		c0-0.912,0.534-1.696,1.602-2.355c1.068-0.629,2.387-0.975,3.926-0.975c1.9,0,3.581,0.533,5.025,1.634
		c1.492,1.067,2.23,2.513,2.23,4.304C171.074,251.854,170.037,253.662,167.996,255.342z M167.996,207.271
		c-2.042,1.681-5.277,2.968-9.706,3.939v-1.238c2.953-0.646,5.214-1.619,6.847-2.971c1.633-1.352,2.418-2.764,2.418-4.256
		c0-0.361-0.125-0.658-0.377-0.91c-0.22-0.172-0.408-0.234-0.612-0.234c-0.33,0-1.021,0.156-2.057,0.549
		c-0.502,0.175-1.037,0.269-1.633,0.269c-1.414,0-2.513-0.283-3.33-0.815c-0.848-0.533-1.256-1.288-1.256-2.262
		c0-0.942,0.534-1.696,1.602-2.355c1.068-0.66,2.387-0.989,3.926-0.989c1.9,0,3.581,0.533,5.025,1.617
		c1.492,1.067,2.23,2.497,2.23,4.287C171.074,203.801,170.037,205.621,167.996,207.271z M167.996,159.23
		c-2.042,1.665-5.277,2.984-9.706,3.927v-1.241c2.953-0.644,5.214-1.617,6.847-2.968c1.633-1.351,2.418-2.764,2.418-4.271
		c0-0.346-0.125-0.66-0.377-0.896c-0.22-0.157-0.408-0.267-0.612-0.267c-0.33,0-1.021,0.204-2.057,0.565
		c-0.502,0.188-1.037,0.267-1.633,0.267c-1.414,0-2.513-0.267-3.33-0.832c-0.848-0.534-1.256-1.288-1.256-2.23
		c0-0.942,0.534-1.712,1.602-2.371s2.387-0.989,3.926-0.989c1.9,0,3.581,0.519,5.025,1.602c1.492,1.1,2.23,2.513,2.23,4.303
		C171.074,155.775,170.037,157.566,167.996,159.23z M195.164,249.531c-0.942,0.627-2.073,0.941-3.376,0.941
		c-1.303,0-2.434-0.314-3.376-0.941c-0.911-0.598-1.414-1.352-1.414-2.199c0-0.879,0.503-1.648,1.414-2.229
		c0.942-0.598,2.073-0.928,3.376-0.928c1.351,0,2.466,0.33,3.408,0.928c0.896,0.611,1.351,1.351,1.351,2.229
		C196.546,248.182,196.075,248.918,195.164,249.531z M195.164,201.477c-0.942,0.611-2.073,0.91-3.376,0.91
		c-1.303,0-2.434-0.299-3.376-0.91c-0.911-0.598-1.414-1.334-1.414-2.214c0-0.895,0.503-1.617,1.414-2.214
		c0.942-0.628,2.072-0.927,3.376-0.927c1.351,0,2.466,0.299,3.408,0.927c0.896,0.597,1.351,1.351,1.351,2.198
		C196.546,200.125,196.075,200.879,195.164,201.477z M195.164,153.42c-0.942,0.629-2.073,0.927-3.376,0.927
		c-1.303,0-2.434-0.298-3.376-0.927c-0.911-0.597-1.414-1.319-1.414-2.198c0-0.88,0.503-1.617,1.414-2.215
		c0.942-0.597,2.073-0.895,3.376-0.895c1.351,0,2.466,0.298,3.408,0.911c0.896,0.612,1.351,1.334,1.351,2.214
		C196.546,152.069,196.075,152.824,195.164,153.42z M222.458,255.342c-2.041,1.664-5.276,2.953-9.705,3.928v-1.258
		c2.952-0.629,5.214-1.633,6.831-2.969c1.648-1.352,2.436-2.766,2.436-4.271c0-0.33-0.158-0.646-0.377-0.896
		c-0.205-0.188-0.408-0.252-0.598-0.252c-0.33,0-1.021,0.188-2.072,0.533c-0.503,0.174-1.053,0.282-1.647,0.282
		c-1.384,0-2.515-0.282-3.347-0.848c-0.815-0.533-1.226-1.287-1.226-2.262c0-0.912,0.519-1.696,1.603-2.355
		c1.067-0.629,2.389-0.975,3.928-0.975c1.884,0,3.578,0.533,5.039,1.634c1.462,1.067,2.216,2.513,2.216,4.304
		C225.521,251.854,224.531,253.662,222.458,255.342z M222.458,207.271c-2.041,1.681-5.276,2.968-9.705,3.939v-1.238
		c2.952-0.646,5.214-1.619,6.831-2.971c1.648-1.352,2.436-2.764,2.436-4.256c0-0.361-0.158-0.658-0.377-0.91
		c-0.205-0.172-0.408-0.234-0.598-0.234c-0.33,0-1.021,0.156-2.072,0.549c-0.503,0.175-1.053,0.269-1.647,0.269
		c-1.384,0-2.515-0.283-3.347-0.815c-0.815-0.533-1.226-1.288-1.226-2.262c0-0.942,0.519-1.696,1.603-2.355
		c1.067-0.66,2.389-0.989,3.928-0.989c1.884,0,3.578,0.533,5.039,1.617c1.462,1.067,2.216,2.497,2.216,4.287
		C225.521,203.801,224.531,205.621,222.458,207.271z M222.458,159.23c-2.041,1.665-5.276,2.984-9.705,3.927v-1.241
		c2.952-0.644,5.214-1.617,6.831-2.968c1.648-1.335,2.436-2.764,2.436-4.271c0-0.346-0.158-0.66-0.377-0.896
		c-0.205-0.157-0.408-0.267-0.598-0.267c-0.33,0-1.021,0.204-2.072,0.565c-0.503,0.188-1.053,0.267-1.647,0.267
		c-1.384,0-2.515-0.267-3.347-0.832c-0.815-0.534-1.226-1.288-1.226-2.23c0-0.942,0.519-1.712,1.603-2.371
		c1.067-0.659,2.389-0.989,3.928-0.989c1.884,0,3.578,0.519,5.039,1.602c1.462,1.1,2.216,2.513,2.216,4.303
		C225.521,155.775,224.531,157.566,222.458,159.23z M249.596,249.531c-0.941,0.627-2.025,0.941-3.346,0.941
		s-2.434-0.314-3.359-0.941c-0.959-0.598-1.396-1.352-1.396-2.199c0-0.879,0.438-1.648,1.396-2.229
		c0.926-0.598,2.041-0.928,3.359-0.928c1.352,0,2.466,0.33,3.393,0.928c0.928,0.611,1.353,1.351,1.353,2.229
		C250.993,248.182,250.537,248.918,249.596,249.531z M249.596,201.477c-0.941,0.611-2.025,0.91-3.346,0.91s-2.434-0.299-3.359-0.91
		c-0.959-0.598-1.396-1.334-1.396-2.214c0-0.895,0.438-1.617,1.396-2.214c0.926-0.628,2.041-0.927,3.359-0.927
		c1.352,0,2.466,0.299,3.393,0.927c0.928,0.597,1.353,1.351,1.353,2.198C250.993,200.125,250.537,200.879,249.596,201.477z
		 M249.596,153.42c-0.941,0.629-2.025,0.927-3.346,0.927s-2.434-0.298-3.359-0.927c-0.959-0.597-1.396-1.319-1.396-2.198
		c0-0.88,0.438-1.617,1.396-2.215c0.926-0.612,2.041-0.895,3.359-0.895c1.352,0,2.466,0.298,3.393,0.911
		c0.928,0.612,1.353,1.334,1.353,2.214C250.993,152.069,250.537,152.824,249.596,153.42z M263.227,249.531
		c-0.927,0.627-2.041,0.941-3.358,0.941c-1.319,0-2.45-0.314-3.361-0.941c-0.94-0.598-1.382-1.352-1.382-2.199
		c0-0.879,0.438-1.648,1.382-2.229c0.958-0.598,2.042-0.928,3.361-0.928c1.351,0,2.465,0.33,3.392,0.928
		c0.911,0.611,1.383,1.351,1.383,2.229C264.641,248.182,264.169,248.918,263.227,249.531z M263.227,201.477
		c-0.927,0.611-2.041,0.91-3.358,0.91c-1.319,0-2.45-0.299-3.361-0.91c-0.94-0.598-1.382-1.334-1.382-2.214
		c0-0.895,0.438-1.617,1.382-2.214c0.958-0.628,2.042-0.927,3.361-0.927c1.351,0,2.465,0.299,3.392,0.927
		c0.911,0.597,1.383,1.351,1.383,2.198C264.641,200.125,264.169,200.879,263.227,201.477z M263.227,153.42
		c-0.927,0.629-2.041,0.927-3.358,0.927c-1.319,0-2.45-0.298-3.361-0.927c-0.94-0.597-1.382-1.319-1.382-2.198
		c0-0.88,0.438-1.617,1.382-2.215c0.958-0.612,2.042-0.895,3.361-0.895c1.351,0,2.465,0.298,3.392,0.911
		c0.911,0.612,1.383,1.334,1.383,2.214C264.641,152.069,264.169,152.824,263.227,153.42z M276.857,249.531
		c-0.941,0.627-2.041,0.941-3.36,0.941s-2.449-0.314-3.392-0.941c-0.912-0.598-1.383-1.352-1.383-2.199
		c0-0.879,0.471-1.648,1.383-2.229c0.957-0.598,2.07-0.928,3.392-0.928c1.351,0,2.481,0.33,3.394,0.928
		c0.896,0.611,1.365,1.351,1.365,2.229C278.256,248.182,277.77,248.918,276.857,249.531z M276.857,201.477
		c-0.941,0.611-2.041,0.91-3.36,0.91s-2.449-0.299-3.392-0.91c-0.912-0.598-1.383-1.334-1.383-2.214
		c0-0.895,0.471-1.617,1.383-2.214c0.957-0.628,2.07-0.927,3.392-0.927c1.351,0,2.481,0.299,3.394,0.927
		c0.896,0.597,1.365,1.351,1.365,2.198C278.256,200.125,277.77,200.879,276.857,201.477z M276.857,153.42
		c-0.941,0.629-2.041,0.927-3.36,0.927s-2.449-0.298-3.392-0.927c-0.912-0.597-1.383-1.319-1.383-2.198
		c0-0.88,0.471-1.617,1.383-2.215c0.957-0.612,2.07-0.895,3.392-0.895c1.351,0,2.481,0.298,3.394,0.911
		c0.896,0.612,1.365,1.334,1.365,2.214C278.256,152.069,277.77,152.824,276.857,153.42z M304.089,249.531
		c-0.94,0.627-2.041,0.941-3.36,0.941c-1.317,0-2.449-0.314-3.358-0.941c-0.942-0.598-1.397-1.352-1.397-2.199
		c0-0.879,0.439-1.648,1.397-2.229c0.909-0.598,2.041-0.928,3.358-0.928c1.353,0,2.467,0.33,3.36,0.928
		c0.942,0.611,1.384,1.351,1.384,2.229C305.473,248.182,305,248.918,304.089,249.531z M304.089,201.477
		c-0.94,0.611-2.041,0.91-3.36,0.91c-1.317,0-2.449-0.299-3.358-0.91c-0.942-0.598-1.397-1.334-1.397-2.214
		c0-0.895,0.439-1.617,1.397-2.214c0.909-0.628,2.041-0.927,3.358-0.927c1.353,0,2.467,0.299,3.36,0.927
		c0.942,0.597,1.384,1.351,1.384,2.198C305.473,200.125,305,200.879,304.089,201.477z M304.089,153.42
		c-0.94,0.629-2.041,0.927-3.36,0.927c-1.317,0-2.449-0.298-3.358-0.927c-0.942-0.597-1.397-1.319-1.397-2.198
		c0-0.88,0.439-1.617,1.397-2.215c0.909-0.612,2.041-0.895,3.358-0.895c1.353,0,2.467,0.298,3.36,0.911
		c0.942,0.612,1.384,1.334,1.384,2.214C305.473,152.069,305,152.824,304.089,153.42z M317.721,249.531
		c-0.94,0.627-2.071,0.941-3.358,0.941c-1.353,0-2.468-0.314-3.395-0.941c-0.927-0.598-1.382-1.352-1.382-2.199
		c0-0.879,0.455-1.648,1.382-2.229c0.942-0.598,2.073-0.928,3.395-0.928c1.317,0,2.448,0.33,3.358,0.928
		c0.929,0.611,1.383,1.351,1.383,2.229C319.104,248.182,318.616,248.918,317.721,249.531z M317.721,201.477
		c-0.94,0.611-2.071,0.91-3.358,0.91c-1.353,0-2.468-0.299-3.395-0.91c-0.927-0.598-1.382-1.334-1.382-2.214
		c0-0.895,0.455-1.617,1.382-2.214c0.942-0.628,2.073-0.927,3.395-0.927c1.317,0,2.448,0.299,3.358,0.927
		c0.929,0.597,1.383,1.351,1.383,2.198C319.104,200.125,318.616,200.879,317.721,201.477z M317.721,153.42
		c-0.94,0.629-2.071,0.927-3.358,0.927c-1.353,0-2.468-0.298-3.395-0.927c-0.927-0.597-1.382-1.319-1.382-2.198
		c0-0.88,0.455-1.617,1.382-2.215c0.942-0.597,2.073-0.895,3.395-0.895c1.317,0,2.448,0.298,3.358,0.911
		c0.929,0.612,1.383,1.334,1.383,2.214C319.104,152.069,318.616,152.824,317.721,153.42z"/>
</g>
</svg>
